<svg width="42" height="40" viewBox="0 0 42 40" fill="none" xmlns="http://www.w3.org/2000/svg">
<g clip-path="url(#clip0_1742_42)">
<path d="M24.3801 30.21L28.3101 37L30.2001 35.82L30.8701 33.58L26.6601 26.29L24.3801 30.21ZM11.6801 3.36003L9.83008 5.00003L14.8301 13.59L17.1001 9.67003L12.5301 1.78003L11.6801 3.36003ZM15.9501 24.36L10.4301 33.91L11.1201 36.46L12.8101 37.65L20.8101 23.87L23.0801 19.94L31.8701 4.65003L30.4001 2.65003L29.9101 1.94003L27.7601 3.94003L15.9501 24.36Z" fill="white"/>
<path d="M11.51 0L9.23 3.94L2.27 16L0 20L11.51 39.89L13.78 36L4.54 20L13.78 4H20.39L22.66 0H11.51ZM27.74 4L37 20L27.74 36H21.12L18.86 39.93H30L32.28 36L39.28 23.92L41.52 20L39.25 16L32.25 3.94L30 0L27.74 4Z" fill="white"/>
</g>
<defs>
<clipPath id="clip0_1742_42">
<rect width="42" height="40" fill="white"/>
</clipPath>
</defs>
</svg>
